<svg id="svg" viewBox="0 0 1024 1024" xmlns="http://www.w3.org/2000/svg" xmlns:xlink="http://www.w3.org/1999/xlink" version="1.1" width="1024" height="1024" preserveAspectRatio="xMidYMid meet" buffered-rendering="static" style="background: transparent;"><path d="M 304.5 65.52874863664513 C 294.6 65.3073817030244 282.9 65.50561468896792 278.5 65.96926638318631 C 274.1 66.4329180774047 264.875 67.75811100696987 258 68.9141395599978 C 251.125 70.07016811302574 239.65 72.63572589462262 232.5 74.61537907465753 C 225.35 76.59503225469243 215.1125 79.96643008199968 209.75 82.1073742464514 C 204.3875 84.24831841090312 194.9375 88.53523615273033 188.75 91.6338581171785 C 182.5625 94.73248008162669 173.45 99.72011245869717 168.5 102.71748562177959 C 163.55 105.714858784862 154.33928286510996 112.06712263213167 148.03173970024437 116.83362750460108 C 141.72419653537875 121.60013237707048 131.14919653537876 130.90090137780916 124.53173970024436 137.50200306179812 C 117.91428286510995 144.1031047457871 109.44132950088253 153.3281047457871 105.70295444640561 158.00200306179812 C 101.9645793919287 162.67590137780917 96.29316416302407 170.325 93.09980949328423 175 C 89.90645482354438 179.675 84.95182879187728 187.775 82.0895294229129 193 C 79.22723005394853 198.225 74.93869953166423 206.775 72.55946159561445 212 C 70.18022365956467 217.225 66.56305952815481 226 64.52131908137028 231.5 C 62.479578634585756 237 59.53365450608157 246.45 57.97482101802764 252.5 C 56.41598752997371 258.55 54.135420800764805 270.025 52.906894953118965 278 C 51.135873076113505 289.4966237757092 50.65527298747051 297.0568466851308 50.58660579688144 314.5 C 50.53455834736427 327.72133079550514 51.017684191961976 340.09127376547514 51.79735520929893 345.5 C 52.51090057441334 350.45 54.238244712862205 360.125 55.635897739185296 367 C 57.03355076550839 373.875 60.31775383641508 386.025 62.93412678564461 394 C 65.55049973487414 401.975 70.37713629742244 414.125 73.65998581352973 421 C 76.94283532963702 427.875 82.91286833804561 438.9 86.9267258322155 445.5 C 90.94058332638538 452.1 97.4366026253882 461.7492920403374 101.362324274444 466.94287120074983 C 105.28804592349981 472.13645036116225 113.271157456573 481.36145036116227 119.10257212571776 487.44287120074983 C 124.93398679486252 493.5242920403374 134.30274837269695 502.325 139.92204229868315 507 C 145.54133622466938 511.675 155.3951787680964 519.0194516375685 161.8194701729654 523.3210036390412 C 168.24376157783445 527.6225556405138 179.125 533.984153321834 186 537.4578873753082 C 192.875 540.9316214287824 203.675 545.8102678096323 210 548.2993237771968 C 216.325 550.7883797447614 225.55 553.9802790261559 230.5 555.3924332914069 C 235.45 556.8045875566578 242.875 558.660948624873 247 559.5176801096626 C 251.125 560.3744115944522 259 561.7797703497063 264.5 562.6406995657826 C 270 563.5016287818589 284.0883614471705 564.4971696952255 295.807469882601 564.853012706597 L 317.1149397652021 565.5 L 263.2363268271033 646 C 233.60308971114898 690.275 207.2877835073417 730.1 204.75786859642048 734.5 C 202.22795368549927 738.9 198.48919544237737 746.55 196.44951694503848 751.5 C 194.4098384476996 756.45 191.48633334987036 765.45 189.9528389498624 771.5 C 188.41934454985446 777.55 186.64825874621238 788.125 186.01709271954672 795 C 185.38592669288107 801.875 185.15544536705667 811.55 185.50491199549256 816.5 C 185.85437862392845 821.45 186.78373704566638 829.4375 187.570152932688 834.25 C 188.3565688197096 839.0625 190.397775499871 847.3875 192.10616777749107 852.75 C 193.81456005511117 858.1125 197.5509671157455 867.45 200.40929457890064 873.5 C 203.26762204205582 879.55 207.57034803507028 887.425 209.97090789671051 891 C 212.37146775835078 894.575 217.29756069771648 901.0677376093457 220.91778109530094 905.4283057985461 C 224.53800149288543 909.7888739877466 230.875 916.323985878995 235 919.9507766679872 C 239.125 923.5775674569793 245.425 928.628521946463 249 931.1751199779509 C 252.575 933.7217180094387 260.225 938.3010808569071 266 941.351481861214 C 271.775 944.4018828655209 281.225 948.4676222137724 287 950.386458190662 C 292.775 952.3052941675516 301.325 954.6908194288347 306 955.6876254379579 C 312.6338402333749 957.1020964129721 319.0007382606841 957.5 335 957.5 C 351.0192688792831 957.5 357.3578641232241 957.1031208519668 364 955.6842198704887 C 368.675 954.6855407992575 376.55 952.5398126154723 381.5 950.9159350176327 C 386.45 949.2920574197931 396.35 945.0561272374598 403.5 941.5027568346699 C 410.65 937.9493864318799 419.65 932.6724839690421 423.5 929.7763069172524 C 427.35 926.8801298654628 434.2711988495512 920.9081611060761 438.8804418878916 916.5052652297265 C 443.489684926232 912.102369353377 450.060964046596 904.9 453.4832843775895 900.5 C 456.9056047085829 896.1 466.0719058590317 882.9375 473.8528424896979 871.25 L 488 850 L 447.25 822.8525178351288 C 424.8375 807.9214026444495 405.9375 795.5464026444495 405.25 795.3525178351288 C 404.5396059175093 795.1521765678904 397.17125882414405 805.2525124326763 388.1811844665822 818.75 C 377.5123274373959 834.7679726420027 370.91975674268247 843.6745515967467 367.9311844665822 846.1077989809338 C 365.494033009962 848.0920884204475 361.475 850.8811880416405 359 852.3057981391406 C 356.525 853.7304082366408 351.8 855.5966603894691 348.5 856.4530251454258 C 345.2 857.3093899013826 339.125 858.0173861075352 335 858.0263500479874 C 330.3517652669691 858.036451017528 325.0284701019601 857.2921860813324 321 856.0689704957078 C 317.425 854.983447801502 311.8 852.3549113462617 308.5 850.2277783729517 C 305.2 848.1006453996416 300.3261418694984 843.9167045039188 297.6692041544408 840.9301319380122 C 295.01226643938327 837.9435593721055 291.7503787699953 833.25 290.4205648891342 830.5 C 289.09075100827306 827.75 287.2921061137404 822.125 286.42357623461714 818 C 285.39135529115595 813.0975648689533 285.061512563372 808.4219481048373 285.47121485648677 804.5 C 285.81594597763836 801.2 287.12122995256925 795.575 288.3718459118888 792 C 290.1313331788354 786.9703448668953 312.8714167867953 752.1344818666078 388.8996518570698 638 C 442.9393291675998 556.875 486.7815482177032 490.21710251003515 486.326805301744 489.87133891118924 C 485.87206238578483 489.52557531234334 467.05 476.9862554596793 444.5 462.00618368304697 L 403.5 434.76968954371546 L 397.5 437.24796681931383 C 394.2 438.6110193208929 381.375 443.83497689176164 369 448.8567614212443 C 356.625 453.87854595072696 342 459.12917402825155 336.5 460.5248238157435 C 331 461.9204736032354 322 463.55637294450725 316.5 464.1601556852366 C 310.88490089111144 464.7765738542241 300.58038379699957 464.99855789616447 293 464.66640211463783 C 285.575 464.3410549100792 275.45 463.1911670379336 270.5 462.11109573209205 C 265.55 461.0310244262505 257.675 458.93048334079475 253 457.4432266533015 C 248.325 455.9559699658083 241.35 453.3044160479775 237.5 451.55088461367757 C 233.65 449.79735317937764 226.225 445.690628503018 221 442.4248297773228 C 215.775 439.15903105162766 208.125 433.745367018356 204 430.3944652589413 C 199.875 427.04356349952667 193.7623933068715 421.1964853692316 190.41642957082558 417.40095830273003 C 187.07046583477967 413.6054312362285 181.75334359714003 407.125 178.60060237607084 403 C 175.44786115500165 398.875 170.00500412096537 389.65 166.5053645226569 382.5 C 163.0057249243484 375.35 159.88534716198802 368.4875 159.57119171741164 367.25 L 159 365 L 354.5 365 L 550 365 L 549.998787323622 333.25 C 549.9979333448811 310.89133488974386 549.5352644393147 297.50683398388844 548.4346073721886 288 C 547.5749753709081 280.575 545.7850510376684 269.325 544.4569977427669 263 C 543.1289444478655 256.675 540.4037980421353 246.325 538.4011168411444 240 C 536.3984356401534 233.675 532.7507888474511 223.775 530.2952350795838 218 C 527.8396813117165 212.225 523.4322514225221 203 520.5009464369297 197.5 C 517.5696414513372 192 512.3789516925204 183.225 508.96608030622576 178 C 505.553208919931 172.775 500.25091804476983 165.35 497.1832116947564 161.5 C 494.1155053447429 157.65 488.4318119338718 150.9478516505115 484.5527818928205 146.60633700113667 C 480.6737518517692 142.26482235176184 473.2013523328213 134.83982235176182 467.94744962849177 130.10633700113667 C 462.6935469241622 125.3728516505115 454.8185469241622 118.80774227074598 450.44744962849177 115.51720504610218 C 446.0763523328213 112.22666782145838 438.45 106.99226517286813 433.5 103.88519916034608 C 428.55 100.77813314782402 418.875 95.41851656080115 412 91.97494007807302 C 405.125 88.5313635953449 394.55 83.77613988185213 388.5 81.40777627031133 C 382.45 79.03941265877052 371.425 75.53427269811151 364 73.61857635773575 C 356.575 71.70288001736 344.2 69.18953402280574 336.5 68.03336303650406 C 327.83357500223264 66.73208133035105 315.64254642570086 65.77789927654251 304.5 65.52874863664513 Z M 306.5 165.6442912364017 C 313.1 165.88088816013018 323 166.99324238597583 328.5 168.11618951605874 C 334 169.23913664614167 343.225 171.74585150392838 349 173.68666697780702 C 354.775 175.6274824516857 362.875 178.91356280077798 367 180.9890677535677 C 371.125 183.0645727063574 378.55 187.4892664499984 383.5 190.82172051721435 C 388.45 194.15417458443028 395.425 199.44914229412538 399 202.58831542764787 C 402.575 205.72748856117036 408.3436926885363 211.49182478093607 411.8193170856362 215.39795147157167 C 415.29494148273614 219.30407816220725 421.00597680782573 226.775 424.5105066969465 232 C 428.01503658606725 237.225 432.8873967648451 245.775 435.33797376089734 251 C 437.7885507569496 256.225 440.06501543185993 261.5125 440.39678414958706 262.75 L 441 265 L 300 265 L 159 265 L 159.60321585041294 262.75 C 159.93498456814007 261.5125 162.21022871871813 256.225 164.65931396280865 251 C 167.10839920689918 245.775 172.12445207421337 237.01813590860925 175.80609811239572 231.54030201913167 C 179.48774415057807 226.0624681296541 186.325 217.56109030735806 191 212.6483513029183 C 195.675 207.7356122984785 203.1 200.89841187056848 207.5 197.45457257422936 C 211.9 194.01073327789024 219.775 188.6636537425957 225 185.5721736069081 C 230.225 182.48069347122052 238.55 178.401617689129 243.5 176.5075607578158 C 248.45 174.6135038265026 256.325 171.96850024049328 261 170.6297750111284 C 265.675 169.2910497817635 273.1 167.7000291616978 277.5 167.09417363320466 C 281.9 166.48831810471154 287.525 165.81745492588564 290 165.60336656914717 C 292.475 165.3892782124087 299.9 165.40769431267321 306.5 165.6442912364017 Z M 889.75 202.01079212760578 C 889.3375 202.00485645742262 849.8645124237717 269.1625 802.0322498306035 351.25 C 754.1999872374354 433.3375 714.4874872374354 501.27594406738064 713.7822498306035 502.22432014973475 L 712.5 503.9486402994695 L 605 436.455125690028 C 545.875 399.3336926548352 497.275 368.95660675307516 497 368.9504903527835 C 496.725 368.94437395249184 484.94435124218535 387.2905114593599 470.82078053818964 409.71968481249024 C 456.69720983419387 432.1488581656206 444.8662445448639 451.175 444.52974656190065 452 C 444.06807210613056 453.13189809536544 472.21049817672747 471.267170009531 559.2089660237111 525.9004811677232 C 622.61903471067 565.720745809971 674.5806228367596 598.345745809971 674.6791618594659 598.4004811677232 C 674.7777008821722 598.4552165254755 669.6027008821721 676.6562384535468 663.1791618594659 772.1805298967707 C 656.7556228367597 867.7048213399946 651.725 946.0651923836607 652 946.3146877715843 C 652.275 946.5641831595079 674.6314763165586 948.2829447059611 701.6810584812415 950.1341578748136 C 728.7306406459243 951.9853710436661 751.065141615298 953.275 751.3132828576274 953 C 751.561424099957 952.725 757.1218543747216 872.175 763.6697945793264 774 L 775.5751404058808 595.5 L 875.3620698612456 424.5 C 930.2448810616962 330.45 975.227974470373 253.10062194123765 975.3244996583052 252.61249320275036 C 975.4210248462373 252.12436446426307 956.375 240.54172092168568 933 226.87328533035617 C 909.625 213.20484973902666 890.1625 202.01672779778897 889.75 202.01079212760578 Z " fill="#000000"></path></svg>